<?xml version="1.0" encoding="utf-8"?>
<!-- Generator: Adobe Illustrator 19.2.1, SVG Export Plug-In . SVG Version: 6.00 Build 0)  -->
<svg version="1.1" id="Circuit_Layout" xmlns="http://www.w3.org/2000/svg" xmlns:xlink="http://www.w3.org/1999/xlink" x="0px"
	 y="0px" viewBox="0 0 500 350" style="enable-background:new 0 0 500 350;" xml:space="preserve">
<text transform="matrix(1 0 0 1 265.3243 102.6045)"><tspan x="0" y="0" style="font-family:'ArchitectsDaughter'; font-size:8px;">Albert Park Melbourne</tspan><tspan x="33.9" y="9.6" style="font-family:'ArchitectsDaughter'; font-size:8px;">Australia</tspan></text>
<rect id="rect01" x="263" y="241.2" transform="matrix(0.1824 -0.9832 0.9832 0.1824 -11.2135 478.1868)" style="fill:#828282;stroke:#000000;stroke-width:0.776;stroke-linecap:round;stroke-linejoin:round;" width="37.9" height="9.2"/>
<path id="path01_x5F_black" style="fill:none;stroke:#000000;stroke-width:10;" d="M280.2,246.8c-19.2-2.8-38.4-5.6-57.6-8.4
	c-13.9-2-27.8-3.9-41.6-6.1c-1.2-0.2-3.1-0.1-4.8-1.5c-1.8-1.5-1.9-4.5-1.7-6.8c0.2-2.7-0.6-5.4-2.6-7.7c-2.3-2.7-5.6-5.2-8.9-7
	c-2.7-1.5-6.1-2.3-9.3-3.1c-2.1-0.5-4.3-0.6-6.5-0.9c-5.6-0.6-11.2-0.7-16.7-1.5c-12.6-1.8-25.1-4.2-37.6-6.4
	c-2.4-0.4-4.8-0.9-7.1-1.6c-9.9-2.9-19.7-5.9-29.5-9.1c-3.3-1-6.5-2.2-9.7-3.4c-5.8-2.3-11.9-4.5-17.2-7.2c-1.4-0.7-2.6-2.1-3-3.3
	c-0.3-1,0.3-2.3,0.9-3.3c0.9-1.5,2.3-2.7,3.5-4.1c1.9-2.1,4.2-4.1,5.6-6.4c1.5-2.6,2.4-5.6,2.8-8.4c0.4-2.6,0.5-5.5-0.3-8
	c-0.7-2.3-2.4-4.5-4-6.5c-2.8-3.6-6.2-6.8-9.3-10.2c-2.4-2.6-4.9-5.1-7.3-7.8c-0.7-0.8-1.7-1.7-1.9-2.7c-0.4-1.7-0.4-3.7,0.1-5.5
	c2.5-8.3,5.4-16.6,9.2-24.5c1.9-4.1,5-7.7,7.9-11.4c4.1-5.2,9.5-9.7,13.1-15c1.1-1.7,2.1-3.4,3.1-5.2"/>
<path id="path01_x5F_color" style="fill:none;stroke:#FFFF00;stroke-width:3;" d="M280.2,246.8c-19.2-2.8-38.4-5.6-57.6-8.4
	c-13.9-2-27.8-3.9-41.6-6.1c-1.2-0.2-3.1-0.1-4.8-1.5c-1.8-1.5-1.9-4.5-1.7-6.8c0.2-2.7-0.6-5.4-2.6-7.7c-2.3-2.7-5.6-5.2-8.9-7
	c-2.7-1.5-6.1-2.3-9.3-3.1c-2.1-0.5-4.3-0.6-6.5-0.9c-5.6-0.6-11.2-0.7-16.7-1.5c-12.6-1.8-25.1-4.2-37.6-6.4
	c-2.4-0.4-4.8-0.9-7.1-1.6c-9.9-2.9-19.7-5.9-29.5-9.1c-3.3-1-6.5-2.2-9.7-3.4c-5.8-2.3-11.9-4.5-17.2-7.2c-1.4-0.7-2.6-2.1-3-3.3
	c-0.3-1,0.3-2.3,0.9-3.3c0.9-1.5,2.3-2.7,3.5-4.1c1.9-2.1,4.2-4.1,5.6-6.4c1.5-2.6,2.4-5.6,2.8-8.4c0.4-2.6,0.5-5.5-0.3-8
	c-0.7-2.3-2.4-4.5-4-6.5c-2.8-3.6-6.2-6.8-9.3-10.2c-2.4-2.6-4.9-5.1-7.3-7.8c-0.7-0.8-1.7-1.7-1.9-2.7c-0.4-1.7-0.4-3.7,0.1-5.5
	c2.5-8.3,5.4-16.6,9.2-24.5c1.9-4.1,5-7.7,7.9-11.4c4.1-5.2,9.5-9.7,13.1-15c1.1-1.7,2.1-3.4,3.1-5.2"/>
<path id="path02_x5F_black" style="fill:none;stroke:#000000;stroke-width:10;" d="M49.9,53.9c2.5-4.7,4.5-9.6,7.4-13.9
	c0.9-1.4,2.9-2.6,4.6-2.9c2.4-0.3,5.3,0.6,8,0.6c3.1,0.1,6.3,0,9.3-0.5c3.3-0.6,6.6-1.5,9.7-2.7c4.6-1.7,8.6-4.5,13.2-6.1
	c3.4-1.1,7.3-1.5,11-1.9c3.5-0.4,7.2-0.5,10.8-0.3c3.4,0.2,6.8,0.7,10,1.5c3.1,0.8,6.3,1.7,8.9,3.2c6,3.3,11.6,7.2,17,11.2
	c6.3,4.7,12.2,9.8,18,14.8c5.5,4.3,11.1,8.6,16.6,12.9c0.9,0.7,2.2,1.6,1.8,2.5c-0.3,0.8-0.2,1.7-0.9,2.4c-2.3,2.5-6.6,4.5-7,7.6
	c-0.2,1.5-0.6,2.9-0.5,4.4c0,0.9,0.4,3.4,0.1,2.6c0,0,0-0.1,0-0.1c0.9,4.4,3.3,8.6,5.6,12.7c5.5,9.5,11.2,19.1,17.7,28.1
	c2.8,3.9,6.3,7.5,10.1,10.8c4.2,3.6,9.2,6.6,14,9.7c1.7,1.1,3.7,2,5.7,2.8c5.8,2.3,11.6,4.7,17.7,6.4c4.9,1.3,10.1,1.9,15.3,2.6
	c7.3,0.9,14.6,1.7,21.9,2c3.2,0.1,6.5,0.3,9.7,0.4"/>
<path id="path02_x5F_color" style="fill:none;stroke:#FF0000;stroke-width:3;" d="M49.9,53.9c2.5-4.7,4.5-9.6,7.4-13.9
	c0.9-1.4,2.9-2.6,4.6-2.9c2.4-0.3,5.3,0.6,8,0.6c3.1,0.1,6.3,0,9.3-0.5c3.3-0.6,6.6-1.5,9.7-2.7c4.6-1.7,8.6-4.5,13.2-6.1
	c3.4-1.1,7.3-1.5,11-1.9c3.5-0.4,7.2-0.5,10.8-0.3c3.4,0.2,6.8,0.7,10,1.5c3.1,0.8,6.3,1.7,8.9,3.2c6,3.3,11.6,7.2,17,11.2
	c6.3,4.7,12.2,9.8,18,14.8c5.5,4.3,11.1,8.6,16.6,12.9c0.9,0.7,2.2,1.6,1.8,2.5c-0.3,0.8-0.2,1.7-0.9,2.4c-2.3,2.5-6.6,4.5-7,7.6
	c-0.2,1.5-0.6,2.9-0.5,4.4c0,0.9,0.4,3.4,0.1,2.6c0,0,0-0.1,0-0.1c0.9,4.4,3.3,8.6,5.6,12.7c5.5,9.5,11.2,19.1,17.7,28.1
	c2.8,3.9,6.3,7.5,10.1,10.8c4.2,3.6,9.2,6.6,14,9.7c1.7,1.1,3.7,2,5.7,2.8c5.8,2.3,11.6,4.7,17.7,6.4c4.9,1.3,10.1,1.9,15.3,2.6
	c7.3,0.9,14.6,1.7,21.9,2c3.2,0.1,6.5,0.3,9.7,0.4"/>
<path id="path03_x5F_black" style="fill:none;stroke:#000000;stroke-width:10;" d="M305.7,164.8c3.1,0.1,6.1,0.3,9.2,0.4
	c1.3,0.1,2.8-0.4,3.8-1.1c0.9-0.6,2.6-2.7,3.5-3.4c2.9-2.4,5.8-4.3,8.8-6.7c1.6-1.2,4.1-3,5.7-4.1c0.9-0.6,2.2-1.1,3.4-1.1
	c2.4-0.1,5,0.5,7.5,0.6c16.8,1,32.2,1.9,48.9,3.8c5.8,0.7,11.6,1.9,17,3.8c5.3,1.9,10.2,4.7,14.9,7.6c16.5,10.1,32.6,20.7,48.7,31.2
	c2.3,1.5,5.1,3.8,6.7,5.6c0.4,0.5-0.1,1.4-0.5,1.9c-7.9,10.4-15.1,19.5-23.4,29.8c-2.5,3.1-4.8,6.7-8,9.2c-2.2,1.6-5.4,2.5-8.3,3
	c-2.3,0.3-4.9,0.1-7.1-0.6c-14.3-4.8-28.1-11-42.4-16.1c-1-0.4-2.4-0.5-3.4-0.2c-1.1,0.4-2.5,1.3-2.8,2.3c-0.8,2.3-0.3,5.1-0.6,7.7
	c-0.5,4-0.8,8-1.7,11.9c-0.2,1-0.8,2-1.6,2.8c-1.3,1.2-3.1,2.1-4.7,3.1c-1,0.7-1.9,1.7-3.1,2.1c-1.6,0.5-3.5,0.6-5.3,0.5
	c-5.4-0.2-10.7-0.8-16.1-1.5c-13.4-1.7-26.7-3.7-40-5.6c-11.5-1.6-22.9-3.3-34.4-5"/>
<path id="path03_x5F_color" style="fill:none;stroke:#00FFFF;stroke-width:3;stroke-dasharray:6,3;" d="M305.7,164.8
	c3.1,0.1,6.1,0.3,9.2,0.4c1.3,0.1,2.8-0.4,3.8-1.1c0.9-0.6,2.6-2.7,3.5-3.4c2.9-2.4,5.8-4.3,8.8-6.7c1.6-1.2,4.1-3,5.7-4.1
	c0.9-0.6,2.2-1.1,3.4-1.1c2.4-0.1,5,0.5,7.5,0.6c16.8,1,32.2,1.9,48.9,3.8c5.8,0.7,11.6,1.9,17,3.8c5.3,1.9,10.2,4.7,14.9,7.6
	c16.5,10.1,32.6,20.7,48.7,31.2c2.3,1.5,5.1,3.8,6.7,5.6c0.4,0.5-0.1,1.4-0.5,1.9c-7.9,10.4-15.1,19.5-23.4,29.8
	c-2.5,3.1-4.8,6.7-8,9.2c-2.2,1.6-5.4,2.5-8.3,3c-2.3,0.3-4.9,0.1-7.1-0.6c-14.3-4.8-28.1-11-42.4-16.1c-1-0.4-2.4-0.5-3.4-0.2
	c-1.1,0.4-2.5,1.3-2.8,2.3c-0.8,2.3-0.3,5.1-0.6,7.7c-0.5,4-0.8,8-1.7,11.9c-0.2,1-0.8,2-1.6,2.8c-1.3,1.2-3.1,2.1-4.7,3.1
	c-1,0.7-1.9,1.7-3.1,2.1c-1.6,0.5-3.5,0.6-5.3,0.5c-5.4-0.2-10.7-0.8-16.1-1.5c-13.4-1.7-26.7-3.7-40-5.6c-11.5-1.6-22.9-3.3-34.4-5
	"/>
</svg>
