<?xml version="1.0" encoding="utf-8"?>
<!-- Generator: Adobe Illustrator 19.2.1, SVG Export Plug-In . SVG Version: 6.00 Build 0)  -->
<svg version="1.1" id="Circuit_Layout_1_" xmlns="http://www.w3.org/2000/svg" xmlns:xlink="http://www.w3.org/1999/xlink" x="0px"
	 y="0px" viewBox="0 0 500 350" style="enable-background:new 0 0 500 350;" xml:space="preserve">
<style type="text/css">
	.st0{font-family:'ArchitectsDaughter';}
	.st1{font-size:8px;}
	.st2{fill:#828282;stroke:#000000;stroke-width:0.776;stroke-linecap:round;stroke-linejoin:round;}
	.st3{fill:none;stroke:#000000;stroke-width:10;}
	.st4{fill:none;stroke:#FFFF00;stroke-width:3;}
	.st5{fill:none;stroke:#FF0303;stroke-width:3;}
	.st6{fill:none;stroke:#00FFFF;stroke-width:3;}
</style>
<text transform="matrix(1 0 0 1 234.9662 117.492)"><tspan x="0" y="0" class="st0 st1">Autódromo José Carlos Pace</tspan><tspan x="28.2" y="9.6" class="st0 st1">Interlagos - Brazil</tspan></text>
<rect id="rect01" x="368.2" y="199.3" transform="matrix(0.7287 -0.6849 0.6849 0.7287 -48.3544 314.5847)" class="st2" width="9.2" height="37.9"/>
<path id="path01_x5F_black" class="st3" d="M372.8,218.3c17.4-14.4,51.4-42.3,69.2-57.2c17.4-14.6,21.5-23.4,21.8-30.9
	c0.2-5.1-3.5-12.6-8.8-14.2c-5.6-1.6-13.3-4-18.6-6.3s-9.3-6.5-8.9-15.6s1.6-20.6-0.1-27.3c-1.9-7.2-5.6-14.7-9.7-20.2
	s-8.1-10.1-11.3-12.6s-9.7-7.7-16.4-9.8c-8.8-2.7-23.4-4.2-34-2.9c-11.6,1.5-12.7,1.7-14.6,2c-1.9,0.4-173.4,33.8-181.6,35.4"/>
<path id="path01_x5F_color" class="st4" d="M372.8,218.3c17.4-14.4,51.4-42.3,69.2-57.2c17.4-14.6,21.5-23.4,21.8-30.9
	c0.2-5.1-3.5-12.6-8.8-14.2c-5.6-1.6-13.3-4-18.6-6.3s-9.3-6.5-8.9-15.6s1.6-20.6-0.1-27.3c-1.9-7.2-5.6-14.7-9.7-20.2
	s-8.1-10.1-11.3-12.6s-9.7-7.7-16.4-9.8c-8.8-2.7-23.4-4.2-34-2.9c-11.6,1.5-12.7,1.7-14.6,2c-1.9,0.4-173.4,33.8-181.6,35.4"/>
<path id="path02_x5F_black" class="st3" d="M160,58.9c-10.6,2.1-37.3,7.3-49.3,9.6c-6.9,1.3-21.3,9.5-19.3,23.9
	c0.2,1.7,0.6,3.8,1.5,7.4c1.7,6.6,3.4,12.6,5.9,21.6c3.6,15.6,9.3,21,11.8,24c4.1,4.9,14.9,13.1,27.2,15.4
	c14.3,2.6,116.6,21.1,128.3,23.1c8.7,1.5,14.2,4.5,16.3,5.8c10.5,6.8,21.2,29.9,16.7,45.7c-3.3,11.5-10.9,17.8-13.2,19.7
	c-2.3,1.9-16.2,13.5-23.3,18.2c-4.7,3.1-15.1,8.2-18.1,8.7c-3.5,0.5-7.3,0.1-9.4-1.3c-3.7-2.5-6-6.9-5.5-10.9
	c0.2-4.8,2.7-14.6,2.9-16.8c0.6-4.9-2-10.3-4.1-12.5c-2.1-2.2-5.4-5.2-9.1-6c-3.6-0.8-5.8-1.2-8.6-0.5c-3.2,0.8-7.5,3.1-9.2,4.9
	c-1.6,1.8-4.6,5.3-5.6,8.9c-0.7,2.5-6.2,18.4-7.9,22.5c-3.6,9-10,19.1-19.1,26c-5.8,4.3-11.4,8.4-13.1,9.6s-4.4,3.2-8.4,4.1
	c-2,0.4-4.5-0.1-6-0.8c-1.8-0.9-3.8-2.9-4.4-4.8c-1-3.2-0.3-6.9,1.1-10.2s11.2-25.6,13.3-30.4c3.9-9.1,4.8-16.9,3.8-23.1
	c-3.3-19-20.3-34.6-40.2-36.4c-21.4-1.9-34-3.6-41.1-4.1"/>
<path id="path02_x5F_color" class="st5" d="M160,58.9c-10.6,2.1-37.3,7.3-49.3,9.6c-6.9,1.3-21.3,9.5-19.3,23.9
	c0.2,1.7,0.6,3.8,1.5,7.4c1.7,6.6,3.4,12.6,5.9,21.6c3.6,15.6,9.3,21,11.8,24c4.1,4.9,14.9,13.1,27.2,15.4
	c14.3,2.6,116.6,21.1,128.3,23.1c8.7,1.5,14.2,4.5,16.3,5.8c10.5,6.8,21.2,29.9,16.7,45.7c-3.3,11.5-10.9,17.8-13.2,19.7
	c-2.3,1.9-16.2,13.5-23.3,18.2c-4.7,3.1-15.1,8.2-18.1,8.7c-3.5,0.5-7.3,0.1-9.4-1.3c-3.7-2.5-6-6.9-5.5-10.9
	c0.2-4.8,2.7-14.6,2.9-16.8c0.6-4.9-2-10.3-4.1-12.5c-2.1-2.2-5.4-5.2-9.1-6c-3.6-0.8-5.8-1.2-8.6-0.5c-3.2,0.8-7.5,3.1-9.2,4.9
	c-1.6,1.8-4.6,5.3-5.6,8.9c-0.7,2.5-6.2,18.4-7.9,22.5c-3.6,9-10,19.1-19.1,26c-5.8,4.3-11.4,8.4-13.1,9.6s-4.4,3.2-8.4,4.1
	c-2,0.4-4.5-0.1-6-0.8c-1.8-0.9-3.8-2.9-4.4-4.8c-1-3.2-0.3-6.9,1.1-10.2s11.2-25.6,13.3-30.4c3.9-9.1,4.8-16.9,3.8-23.1
	c-3.3-19-20.3-34.6-40.2-36.4c-21.4-1.9-34-3.6-41.1-4.1"/>
<path id="path03_x5F_black" class="st3" d="M74.1,200c-9.1-0.9-16.4-1.7-23.6-2.4c-7.2-0.7-10.3,2.6-11.3,3.7
	c-1.3,1.4-3.2,5.7-3.1,9.7c0.1,4,0.4,11.4,0.7,14.6c0.3,3.2,1.5,17.6,2.5,21.8c1,4.7,2.2,7.8,3.3,10c1.1,2.2,4.2,7.4,5.7,9.6
	c1.6,2.2,12.5,17.4,16.8,21.8c4.8,4.9,11,10.3,14.4,13.3S90,310.7,94,313.5c4,2.8,8.9,5.8,10.6,6.7c3.9,2.2,14.5,6.2,18.7,7.1
	c7.2,1.6,20.9,2.2,28.5,0.5c6.6-1.5,68.1-14.9,79-17.6c11-2.7,29.3-7.6,34.4-9.9c5.2-2.3,22.1-11.5,30.1-18.1s67.4-55.5,77.4-64"/>
<path id="path03_x5F_color" class="st6" d="M74.1,200c-9.1-0.9-16.4-1.7-23.6-2.4c-7.2-0.7-10.3,2.6-11.3,3.7
	c-1.3,1.4-3.2,5.7-3.1,9.7c0.1,4,0.4,11.4,0.7,14.6c0.3,3.2,1.5,17.6,2.5,21.8c1,4.7,2.2,7.8,3.3,10c1.1,2.2,4.2,7.4,5.7,9.6
	c1.6,2.2,12.5,17.4,16.8,21.8c4.8,4.9,11,10.3,14.4,13.3S90,310.7,94,313.5c4,2.8,8.9,5.8,10.6,6.7c3.9,2.2,14.5,6.2,18.7,7.1
	c7.2,1.6,20.9,2.2,28.5,0.5c6.6-1.5,68.1-14.9,79-17.6c11-2.7,29.3-7.6,34.4-9.9c5.2-2.3,22.1-11.5,30.1-18.1s67.4-55.5,77.4-64"/>
</svg>
