<?xml version="1.0" encoding="utf-8"?>
<!-- Generator: Adobe Illustrator 19.2.1, SVG Export Plug-In . SVG Version: 6.00 Build 0)  -->
<svg version="1.1" id="Circuit_Layout" xmlns="http://www.w3.org/2000/svg" xmlns:xlink="http://www.w3.org/1999/xlink" x="0px"
	 y="0px" viewBox="0 0 500 350" style="enable-background:new 0 0 500 350;" xml:space="preserve">
<style type="text/css">
	.st0{font-family:'ArchitectsDaughter';}
	.st1{font-size:8px;}
	.st2{fill:#828282;stroke:#000000;stroke-width:0.776;stroke-linecap:round;stroke-linejoin:round;}
	.st3{fill:none;stroke:#000000;stroke-width:10;stroke-linejoin:round;}
	.st4{fill:none;stroke:#FFFF00;stroke-width:3;stroke-linejoin:round;}
	.st5{fill:none;stroke:#FF0000;stroke-width:3;stroke-linejoin:round;}
	.st6{fill:none;stroke:#00FFFF;stroke-width:3;stroke-linejoin:round;}
</style>
<text transform="matrix(1 0 0 1 58.261 102.0393)"><tspan x="0" y="0" class="st0 st1">Spa Francorchamps</tspan><tspan x="31.1" y="9.6" class="st0 st1">Belgium</tspan></text>
<rect id="rect01" x="94.9" y="218.4" transform="matrix(0.8419 -0.5397 0.5397 0.8419 -112.3789 91.2248)" class="st2" width="9.2" height="37.9"/>
<path id="path01_x5F_black" class="st3" d="M99.5,238.1C80.2,252,43.3,275.4,28,285.2c-2.5,1.6-6.7,5.2-10.8,6.4
	c-2,0.6-3.6,1-4.4,0.3c-0.9-0.8-1.6-2.1-1.8-3.1c-0.6-3.6,2.5-7.2,3.4-9.3c0.7-1.8,11.7-26.6,18.1-38.4c12.6-23.4,21-27.4,33-39.5
	c12-12.2,16.4-16.7,19.6-19.9c3.2-3.2,11.3-10.8,13.5-14c3.3-4.8,4.4-8.7,7-12.1s5.2-6.5,6.9-7.8c2.7-2,6.9-4.3,10.8-5.6
	c4.7-1.5,11.9-1.9,15.3-3.6c4.9-2.5,8.9-5.2,11.8-7.3c2.9-2.1,11.7-9.1,15.6-12.1s14-10.7,17.8-13.3c3.7-2.7,10.4-7.4,14-9.7
	c6.3-4.1,10.5-6.2,17.6-9c5.7-2.2,25.8-8.8,29.8-10.2c30-10.9,98-37.8,111.5-43"/>
<path id="path01_x5F_color" class="st4" d="M99.5,238.1C80.2,252,43.3,275.4,28,285.2c-2.5,1.6-6.7,5.2-10.8,6.4
	c-2,0.6-3.6,1-4.4,0.3c-0.9-0.8-1.6-2.1-1.8-3.1c-0.6-3.6,2.5-7.2,3.4-9.3c0.7-1.8,11.7-26.6,18.1-38.4c12.6-23.4,21-27.4,33-39.5
	c12-12.2,16.4-16.7,19.6-19.9c3.2-3.2,11.3-10.8,13.5-14c3.3-4.8,4.4-8.7,7-12.1s5.2-6.5,6.9-7.8c2.7-2,6.9-4.3,10.8-5.6
	c4.7-1.5,11.9-1.9,15.3-3.6c4.9-2.5,8.9-5.2,11.8-7.3c2.9-2.1,11.7-9.1,15.6-12.1s14-10.7,17.8-13.3c3.7-2.7,10.4-7.4,14-9.7
	c6.3-4.1,10.5-6.2,17.6-9c5.7-2.2,25.8-8.8,29.8-10.2c30-10.9,98-37.8,111.5-43"/>
<path id="path02_x5F_black" class="st3" d="M356.5,33.9c6.3-2.5,17.6-7.4,23.7-8.4c2.2-0.4,3.6-0.6,5.3-0.3c1.4,0.2,4.8,1.9,6.5,3.4
	c2.4,2.2,3.5,3.9,4.7,5.5c2,2.5,3.8,3.8,6.9,4.2c2.5,0.3,3.5-0.1,4.2-0.2c3.8-0.7,9.4-4,13.2-5.5c3-1.1,5-1.9,8-2.6
	c2.7-0.6,5.1-0.6,6.6-0.3c1.8,0.4,4.3,1.4,6.1,3.2c9.9,10.3,42.7,48.6,44.5,50.9s2.7,3.9,3.2,4.8c1.3,2.2,1.6,5.8,1.5,7
	c-0.1,1.6-1.5,4.2-2.3,5.3c-1,1.4-2.6,2.7-3.7,3.3c-1.4,0.7-3.2,1.2-4.8,1.5c-1.8,0.3-3.4,0.1-4.3-0.2c-1.3-0.5-3.6-1.6-4.7-2.5
	c-1.4-1.1-3.8-4.2-5.2-5.7c-4.9-5.5-11-14.7-16.7-21.2c-1.5-1.8-4.5-2.2-5.7-2.4c-1.3-0.1-3.6-0.2-5.8,0.3
	c-3.4,0.8-7.5,3.5-10.2,4.6c-2.7,1.1-11.4,4.6-14.5,5.8c-3.1,1.2-13,5.2-16.5,6.3c-3.5,1.2-13.2,4.1-18.4,5.5s-30.5,7.4-34.6,8.6
	c-5.4,1.5-8.9,2.5-10.1,3.1c-2.4,1.1-5.5,2.9-6.9,4.1c-1.4,1.2-3.7,3.3-4.6,5c-1.4,2.7-2.1,5.6-2.4,8.1c-0.3,2.5-0.4,6.1-0.4,7.6
	c0,1.5,0,7,0.3,9c0.3,2,1.1,7.7,2.3,10.8c1.2,3.2,2.8,6.8,4.1,8.4c1.3,1.6,3.2,3.5,4.5,4.4c1.2,0.9,4,2.8,5.7,3.8s5.3,3.1,6.9,3.7
	c9.2,3.7,22.1,5.9,27.9,7.6c8.9,2.6,31.6,9.4,36.9,11.2c5.2,1.6,9.6,2.8,12.8,4.5c2.3,1.2,4,2.7,4.9,3.7c1.2,1.3,2.9,3.8,3.3,5.4
	c0.4,1.5,1,4.5,0.6,6.5c-0.3,1.6-0.7,3.8-1.8,6.6s-3.5,8.6-3.8,10.9c-0.4,2.8-0.1,5.4,0.2,6.9c0.4,2,2.1,5.7,3,6.7
	c1.5,1.8,3.5,2.9,5.2,4.1c3.8,2.6,12,6.9,15.8,8.5c9.1,3.7,21.7,10,25.9,13.6c2.4,2.1,4,4.4,4.4,5.4c0.4,0.9,1.4,4,1.2,5.9
	c-0.2,2.4-1.5,5.2-2.7,7.2s-5.7,9.4-7.7,12.2"/>
<path id="path02_x5F_color" class="st5" d="M356.5,33.9c6.3-2.5,17.6-7.4,23.7-8.4c2.2-0.4,3.6-0.6,5.3-0.3c1.4,0.2,4.8,1.9,6.5,3.4
	c2.4,2.2,3.5,3.9,4.7,5.5c2,2.5,3.8,3.8,6.9,4.2c2.5,0.3,3.5-0.1,4.2-0.2c3.8-0.7,9.4-4,13.2-5.5c3-1.1,5-1.9,8-2.6
	c2.7-0.6,5.1-0.6,6.6-0.3c1.8,0.4,4.3,1.4,6.1,3.2c9.9,10.3,42.7,48.6,44.5,50.9s2.7,3.9,3.2,4.8c1.3,2.2,1.6,5.8,1.5,7
	c-0.1,1.6-1.5,4.2-2.3,5.3c-1,1.4-2.6,2.7-3.7,3.3c-1.4,0.7-3.2,1.2-4.8,1.5c-1.8,0.3-3.4,0.1-4.3-0.2c-1.3-0.5-3.6-1.6-4.7-2.5
	c-1.4-1.1-3.8-4.2-5.2-5.7c-4.9-5.5-11-14.7-16.7-21.2c-1.5-1.8-4.5-2.2-5.7-2.4c-1.3-0.1-3.6-0.2-5.8,0.3
	c-3.4,0.8-7.5,3.5-10.2,4.6c-2.7,1.1-11.4,4.6-14.5,5.8c-3.1,1.2-13,5.2-16.5,6.3c-3.5,1.2-13.2,4.1-18.4,5.5s-30.5,7.4-34.6,8.6
	c-5.4,1.5-8.9,2.5-10.1,3.1c-2.4,1.1-5.5,2.9-6.9,4.1c-1.4,1.2-3.7,3.3-4.6,5c-1.4,2.7-2.1,5.6-2.4,8.1c-0.3,2.5-0.4,6.1-0.4,7.6
	c0,1.5,0,7,0.3,9c0.3,2,1.1,7.7,2.3,10.8c1.2,3.2,2.8,6.8,4.1,8.4c1.3,1.6,3.2,3.5,4.5,4.4c1.2,0.9,4,2.8,5.7,3.8s5.3,3.1,6.9,3.7
	c9.2,3.7,22.1,5.9,27.9,7.6c8.9,2.6,31.6,9.4,36.9,11.2c5.2,1.6,9.6,2.8,12.8,4.5c2.3,1.2,4,2.7,4.9,3.7c1.2,1.3,2.9,3.8,3.3,5.4
	c0.4,1.5,1,4.5,0.6,6.5c-0.3,1.6-0.7,3.8-1.8,6.6s-3.5,8.6-3.8,10.9c-0.4,2.8-0.1,5.4,0.2,6.9c0.4,2,2.1,5.7,3,6.7
	c1.5,1.8,3.5,2.9,5.2,4.1c3.8,2.6,12,6.9,15.8,8.5c9.1,3.7,21.7,10,25.9,13.6c2.4,2.1,4,4.4,4.4,5.4c0.4,0.9,1.4,4,1.2,5.9
	c-0.2,2.4-1.5,5.2-2.7,7.2s-5.7,9.4-7.7,12.2"/>
<path id="path03_x5F_black" class="st3" d="M468.9,299.8c-2.5,3.6-5.7,8.1-7.4,10c-1.7,1.8-4.7,4.4-6.1,5.1
	c-1.4,0.7-4.8,2.1-6.5,2.3c-1.7,0.2-6.4,0.5-9.8,0c-3.4-0.5-13.4-2.8-18.3-4.6c-4.9-1.7-13.2-5.1-16-6.8
	c-2.9-1.7-15.5-10.6-18.8-13.3c-3.3-2.7-13.5-11.7-17-15.8c-3.5-4-14.6-18.7-18.3-24.3s-10.4-16.4-13.5-20.5
	c-3.2-4.1-8.8-11.4-12.5-14c-3.7-2.6-10.6-6.2-14.8-8.3c-4.2-2-11.5-5.5-16.2-7.1c-4.8-1.6-23.9-6.7-27.9-7.4s-9-1.3-11.4-0.9
	c-2.3,0.4-7.8,1.8-11,3.2c-3.1,1.4-13.3,7.1-16.9,9c-3.6,1.9-18.9,10.2-23.8,11.9c-4.8,1.7-19.4,5.6-25.7,7
	c-6.3,1.4-41.4,9.2-42.9,8.8c-1.5-0.4-3.6-1.1-3.7-2.6c-0.1-1.5,0-1.9,0.1-3.1c0.1-1.2,1-5.1,0.4-6.4c-0.5-1.2-1.1-2.3-1.9-2.7
	c-0.8-0.4-1.4-0.9-2.5-0.7c-1.1,0.2-3.2,1.1-4.2,1.9c-1,0.8-17.9,13.8-23,17.4"/>
<path id="path03_x5F_color" class="st6" d="M468.9,299.8c-2.5,3.6-5.7,8.1-7.4,10c-1.7,1.8-4.7,4.4-6.1,5.1
	c-1.4,0.7-4.8,2.1-6.5,2.3c-1.7,0.2-6.4,0.5-9.8,0c-3.4-0.5-13.4-2.8-18.3-4.6c-4.9-1.7-13.2-5.1-16-6.8
	c-2.9-1.7-15.5-10.6-18.8-13.3c-3.3-2.7-13.5-11.7-17-15.8c-3.5-4-14.6-18.7-18.3-24.3s-10.4-16.4-13.5-20.5
	c-3.2-4.1-8.8-11.4-12.5-14c-3.7-2.6-10.6-6.2-14.8-8.3c-4.2-2-11.5-5.5-16.2-7.1c-4.8-1.6-23.9-6.7-27.9-7.4s-9-1.3-11.4-0.9
	c-2.3,0.4-7.8,1.8-11,3.2c-3.1,1.4-13.3,7.1-16.9,9c-3.6,1.9-18.9,10.2-23.8,11.9c-4.8,1.7-19.4,5.6-25.7,7
	c-6.3,1.4-41.4,9.2-42.9,8.8c-1.5-0.4-3.6-1.1-3.7-2.6c-0.1-1.5,0-1.9,0.1-3.1c0.1-1.2,1-5.1,0.4-6.4c-0.5-1.2-1.1-2.3-1.9-2.7
	c-0.8-0.4-1.4-0.9-2.5-0.7c-1.1,0.2-3.2,1.1-4.2,1.9c-1,0.8-17.9,13.8-23,17.4"/>
</svg>
