<?xml version="1.0" encoding="utf-8"?>
<!-- Generator: Adobe Illustrator 19.2.1, SVG Export Plug-In . SVG Version: 6.00 Build 0)  -->
<svg version="1.1" id="Circuit_Layout" xmlns="http://www.w3.org/2000/svg" xmlns:xlink="http://www.w3.org/1999/xlink" x="0px"
	 y="0px" viewBox="0 0 500 350" style="enable-background:new 0 0 500 350;" xml:space="preserve">
<style type="text/css">
	.st0{font-family:'ArchitectsDaughter';}
	.st1{font-size:8px;}
	.st2{fill:#828282;stroke:#000000;stroke-width:0.776;stroke-linecap:round;stroke-linejoin:round;}
	.st3{fill:none;stroke:#000000;stroke-width:8;stroke-miterlimit:10;}
	.st4{fill:none;stroke:#FFFF00;stroke-width:3;stroke-miterlimit:10;}
</style>
<text transform="matrix(1 0 0 1 168.2077 105.3708)"><tspan x="0" y="0" class="st0 st1">Baku City Circuit</tspan><tspan x="17.1" y="9.6" class="st0 st1">Azerbaijan</tspan></text>
<text transform="matrix(1 0 0 1 277.4079 203.2063)" class="st0 st1">Sectors not yet known</text>
<rect id="rect01" x="428.8" y="80" transform="matrix(0.9082 -0.4186 0.4186 0.9082 -1.6277 190.5097)" class="st2" width="9.2" height="37.9"/>
<path id="path01_x5F_black_1_" class="st3" d="M433.2,98.4c18.1-7.6,31.7-13.4,37.4-15.8c3.8-1.6-3.1-12.2-25.5-62.9
	c-1.5-3.4-1.5-4.6-4.5-5.6c-1.8-0.6-5.9,1.7-8.8,2.8c-33.6,13.5-69.3,27.9-102,42.4c-3.2,1.4-4.3,1.1-5.3,3.4
	c-0.8,1.8,0.7,3.9,1.5,5.6c1.9,4.2,15.7,32.6,16.1,35.3c0.4,2.7-2.2,4-4.7,5.2c-6.9,3.4-62.8,28.4-74.4,34.1
	c-3.1,1.5-5.9,4.1-7.4,5.1c-8,4.9-13,8.6-21,13.5c-3,1.9-3.5,2-3.7,4.8c-0.2,2,4.7,7.3,1.5,8.8c-5.8,2.8-45.7,34.7-48.4,35.2
	c-4,0.9-2.3-1.6-8.6,3.9c-5.8,5.2-1.5,8.7-6.3,9.3c-2.2,0.3-10.2-30.9-12.8-37.1c-1.8-4.3-2.9,0.4-5.1-1.1c-3.8-2.7-2.2-2.7-6.5-3.1
	c-2.9-0.3-4.5,2.1-8.7,0.3c-3.9-1.7-2.9-13.8-8.6-12.5c-17.3,3.9-55.6,24-69.7,33.5c-6.2,4.1-14.6,39.1-15.5,43.2
	c-1.8,7.7,2.1,37.6,2.3,39.4c0.5,3.8-1.8,10.1,0.2,11.5c2.3,1.6,3.1,0.9,5.9,2.3c2.7,1.3,54.9,28.6,58.9,29.7
	c1.7,0.5,5.7-0.5,7.3-6.2c1-3.4,9.1-27.5,15.8-33.4l32.5-30.3c3.9-2.4,9.1-26.3,11.1-30.3c1.3-2.5,57.5-44.6,65.8-49.9
	c2.1-1.3,19.2-9.2,26.8-12.3C320,145.9,389.7,116.7,433.2,98.4"/>
<path id="path01_x5F_color_1_" class="st4" d="M433.2,98.4c18.1-7.6,31.7-13.4,37.4-15.8c3.8-1.6-3.1-12.2-25.5-62.9
	c-1.5-3.4-1.5-4.6-4.5-5.6c-1.8-0.6-5.9,1.7-8.8,2.8c-33.6,13.5-69.3,27.9-102,42.4c-3.2,1.4-4.3,1.1-5.3,3.4
	c-0.8,1.8,0.7,3.9,1.5,5.6c1.9,4.2,15.7,32.6,16.1,35.3c0.4,2.7-2.2,4-4.7,5.2c-6.9,3.4-62.8,28.4-74.4,34.1
	c-3.1,1.5-5.9,4.1-7.4,5.1c-8,4.9-13,8.6-21,13.5c-3,1.9-3.5,2-3.7,4.8c-0.2,2,4.7,7.3,1.5,8.8c-5.8,2.8-45.7,34.7-48.4,35.2
	c-4,0.9-2.3-1.6-8.6,3.9c-5.8,5.2-1.5,8.7-6.3,9.3c-2.2,0.3-10.2-30.9-12.8-37.1c-1.8-4.3-2.9,0.4-5.1-1.1c-3.8-2.7-2.2-2.7-6.5-3.1
	c-2.9-0.3-4.5,2.1-8.7,0.3c-3.9-1.7-2.9-13.8-8.6-12.5c-17.3,3.9-55.6,24-69.7,33.5c-6.2,4.1-14.6,39.1-15.5,43.2
	c-1.8,7.7,2.1,37.6,2.3,39.4c0.5,3.8-1.8,10.1,0.2,11.5c2.3,1.6,3.1,0.9,5.9,2.3c2.7,1.3,54.9,28.6,58.9,29.7
	c1.7,0.5,5.7-0.5,7.3-6.2c1-3.4,9.1-27.5,15.8-33.4l32.5-30.3c3.9-2.4,9.1-26.3,11.1-30.3c1.3-2.5,57.5-44.6,65.8-49.9
	c2.1-1.3,19.2-9.2,26.8-12.3C320,145.9,389.7,116.7,433.2,98.4"/>
</svg>
