<?xml version="1.0" encoding="utf-8"?>
<!-- Generator: Adobe Illustrator 19.2.1, SVG Export Plug-In . SVG Version: 6.00 Build 0)  -->
<svg version="1.1" id="Circuit_Layout" xmlns="http://www.w3.org/2000/svg" xmlns:xlink="http://www.w3.org/1999/xlink" x="0px"
	 y="0px" viewBox="0 0 500 350" style="enable-background:new 0 0 500 350;" xml:space="preserve">
<style type="text/css">
	.st0{font-family:'ArchitectsDaughter';}
	.st1{font-size:8px;}
	.st2{fill:#828282;stroke:#000000;stroke-width:0.776;stroke-linecap:round;stroke-linejoin:round;}
	.st3{fill:none;stroke:#000000;stroke-width:10;stroke-linejoin:round;}
	.st4{fill:none;stroke:#FFFF00;stroke-width:3;stroke-linejoin:round;}
	.st5{fill:none;stroke:#FF0000;stroke-width:3;stroke-linejoin:round;}
	.st6{fill:none;stroke:#00FFFF;stroke-width:3;stroke-linejoin:round;}
</style>
<text transform="matrix(1 0 0 1 214.028 71.6045)"><tspan x="0" y="0" class="st0 st1">Circuit de Barcelona</tspan><tspan x="9.1" y="9.6" class="st0 st1">Catalunya - Spain</tspan></text>
<rect id="rect01" x="313.3" y="235.3" transform="matrix(3.154943e-003 -1 1 3.154943e-003 91.2865 571.5082)" class="st2" width="37.9" height="9.2"/>
<path id="path01_x5F_black_1_" class="st3" d="M332.2,240.4c-79.7-0.2-158.6,1.7-238.2-0.3c-15.9-0.4-17.8-9.2-17.7-17.5
	c0.1-13.6-3.2-20.7-16-26.6c-10.1-4.6-21.2-7.7-30.9-12.6c-4.6-2.3-8.5-6.9-11.1-11.3c-2.8-4.8-5-9-5.9-14.6
	c-0.9-5.5-0.6-11.6,0.9-16.9c1.8-6.5,5.2-13.5,9.9-18.5c6.2-6.5,13.1-11.2,21.2-15.3c6.7-3.4,17.2-6.7,24.8-6.9
	c25.7-0.8,50.8-0.8,76.4-0.6"/>
<path id="path01_x5F_color_2_" class="st4" d="M332.2,240.4c-79.7-0.2-158.6,1.7-238.2-0.3c-15.9-0.4-17.8-9.2-17.7-17.5
	c0.1-13.6-3.2-20.7-16-26.6c-10.1-4.6-21.2-7.7-30.9-12.6c-4.6-2.3-8.5-6.9-11.1-11.3c-2.8-4.8-5-9-5.9-14.6
	c-0.9-5.5-0.6-11.6,0.9-16.9c1.8-6.5,5.2-13.5,9.9-18.5c6.2-6.5,13.1-11.2,21.2-15.3c6.7-3.4,17.2-6.7,24.8-6.9
	c25.7-0.8,50.8-0.8,76.4-0.6"/>
<path id="path02_x5F_black_1_" class="st3" d="M145.7,99.3c4.8,0.1,9.6,0.1,14.4,0.2c4.5,0.1,8.7,2.7,11.5,5.8
	c2.3,2.6,5.1,8.1,5.6,12c0.6,4.1-0.8,9-2.5,12.8c-2.4,5.3-5.9,8.9-10.2,12.7c-3.8,3.3-11.1,7.2-16.2,7.4
	c-24.8,1.1-45.8,1.4-69.9,0.8c-3.3-0.1-6.8,1.1-9,3.3c-2.4,2.5-4.1,7.8-3.4,10.9c0.9,4,4.3,8.2,8.3,10.8c15,9.9,29.4,18.3,45.5,26.9
	c8.3,4.4,17.2,8,26.5,8.3c13.9,0.4,23.9,1.7,39,0.8c9.2-0.5,14.9-10.2,13.1-23.9c-0.7-5.4,1.2-11.4,4.4-16.2
	c14.4-21.3,22.6-36.1,38.7-55.8c3.3-4,9.1-7.2,14-8.5c4.1-1.1,9.7-1.3,14.2-0.7c7.3,0.9,14.3,4.3,20.6,8.2
	c38.7,23.8,74.4,45.8,111.9,68"/>
<path id="path02_x5F_color_2_" class="st5" d="M145.7,99.3c4.8,0.1,9.6,0.1,14.4,0.2c4.5,0.1,8.7,2.7,11.5,5.8
	c2.3,2.6,5.1,8.1,5.6,12c0.6,4.1-0.8,9-2.5,12.8c-2.4,5.3-5.9,8.9-10.2,12.7c-3.8,3.3-11.1,7.2-16.2,7.4
	c-24.8,1.1-45.8,1.4-69.9,0.8c-3.3-0.1-6.8,1.1-9,3.3c-2.4,2.5-4.1,7.8-3.4,10.9c0.9,4,4.3,8.2,8.3,10.8c15,9.9,29.4,18.3,45.5,26.9
	c8.3,4.4,17.2,8,26.5,8.3c13.9,0.4,23.9,1.7,39,0.8c9.2-0.5,14.9-10.2,13.1-23.9c-0.7-5.4,1.2-11.4,4.4-16.2
	c14.4-21.3,22.6-36.1,38.7-55.8c3.3-4,9.1-7.2,14-8.5c4.1-1.1,9.7-1.3,14.2-0.7c7.3,0.9,14.3,4.3,20.6,8.2
	c38.7,23.8,74.4,45.8,111.9,68"/>
<path id="path03_x5F_black_1_" class="st3" d="M402.3,183.2c8.6,5.1,17.3,10.3,26.2,15.4c6.2,3.7,14.2-0.9,11.5-8.4
	c-4.4-12.4-7.6-22.9-11.6-33.7c-1.4-3.7-4.4-4.6-10.3-6.6c-6.5-2.1-12.9-4.6-16.6-11.1c-1.6-2.9-3-7.4-2.4-10.9
	c0.8-4.8,3-9.8,6-13.3c2.7-3.2,7.6-6,11.8-6.8c3.5-0.7,7.6,0.3,11.1,1.6c14.7,5.4,26.8,9.1,40.4,14.4c4.8,1.9,12.3,3.6,11.9,9.7
	c-0.8,12.8-2.6,25.5-3.9,38.3c-0.4,4.3,2.4,5.8,7.8,5.8c3.5,0.2,7.8,3.2,7.8,6.5c-0.3,8.4-0.7,17-1.1,26c-0.3,6.2-3.1,13.7-7,18.2
	c-4.3,4.9-13.1,12.4-24.9,12.4c-44.2,0-81.6-0.2-126.7-0.3"/>
<path id="path03_x5F_color_2_" class="st6" d="M402.3,183.2c8.6,5.1,17.3,10.3,26.2,15.4c6.2,3.7,14.2-0.9,11.5-8.4
	c-4.4-12.4-7.6-22.9-11.6-33.7c-1.4-3.7-4.4-4.6-10.3-6.6c-6.5-2.1-12.9-4.6-16.6-11.1c-1.6-2.9-3-7.4-2.4-10.9
	c0.8-4.8,3-9.8,6-13.3c2.7-3.2,7.6-6,11.8-6.8c3.5-0.7,7.6,0.3,11.1,1.6c14.7,5.4,26.8,9.1,40.4,14.4c4.8,1.9,12.3,3.6,11.9,9.7
	c-0.8,12.8-2.6,25.5-3.9,38.3c-0.4,4.3,2.4,5.8,7.8,5.8c3.5,0.2,7.8,3.2,7.8,6.5c-0.3,8.4-0.7,17-1.1,26c-0.3,6.2-3.1,13.7-7,18.2
	c-4.3,4.9-13.1,12.4-24.9,12.4c-44.2,0-81.6-0.2-126.7-0.3"/>
</svg>
