<?xml version="1.0" encoding="utf-8"?>
<!-- Generator: Adobe Illustrator 19.2.1, SVG Export Plug-In . SVG Version: 6.00 Build 0)  -->
<svg version="1.1" id="Circuit_Layout" xmlns="http://www.w3.org/2000/svg" xmlns:xlink="http://www.w3.org/1999/xlink" x="0px"
	 y="0px" viewBox="0 0 500 350" style="enable-background:new 0 0 500 350;" xml:space="preserve">
<style type="text/css">
	.st0{font-family:'ArchitectsDaughter';}
	.st1{font-size:8px;}
	.st2{fill:#828282;stroke:#000000;stroke-width:0.776;stroke-linecap:round;stroke-linejoin:round;}
	.st3{fill:none;stroke:#000000;stroke-width:8;}
	.st4{fill:none;stroke:#FFFF00;stroke-width:3;}
	.st5{fill:none;stroke:#FF0000;stroke-width:3;}
	.st6{fill:none;stroke:#B2B2B2;stroke-width:14;}
	.st7{fill:none;stroke:#00FFFF;stroke-width:3;}
</style>
<text transform="matrix(1 0 0 1 184.9415 205.6045)"><tspan x="0" y="0" class="st0 st1">Circuit de Monte-Carlo</tspan><tspan x="35" y="9.6" class="st0 st1">Monaco</tspan></text>
<rect id="rect01" x="39.6" y="159.3" transform="matrix(0.244 -0.9698 0.9698 0.244 -139.4579 177.7087)" class="st2" width="9.2" height="37.9"/>
<path id="path01_x5F_black" class="st3" d="M44.3,178.3c4.3-12.4,10.4-30,14.6-37.7c5.3-9.8,13.4-19.3,16.8-23.1
	c3.3-3.8,6.6-6.8,7.8-9.4c1.3-2.6,3.2-7.2,4.4-9c1.4-2,3.9-3.8,5.7-3.5c2.7,0.5,5.9,3.6,7.9,4.2c14.8,4.2,39.6,9,48,10.4
	c12,2.1,30.3,3.9,39.8,6.3c9.6,2.4,23.4,8.8,31.2,10c14.2,2.1,30.7-0.2,43.9,1.8c13.2,2,26.5,8.2,36.2,9.1
	c9.7,0.9,21.7-0.4,27.2-2.3c6.3-2.2,12.3-6,14.9-10c2.5-3.7,3.5-7.1,4.1-11.8c0.6-5.2,0.3-10.3-0.7-13.9c-0.8-2.9-4.7-13.8-5.2-16.4
	c-1.6-7.2-0.5-17.4,6.8-24.5c5.9-5.8,11.7-8.7,14-10c2.3-1.3,29.1-16.3,52.2-27.4"/>
<path id="path01_x5F_color" class="st4" d="M44.3,178.3c4.3-12.4,10.4-30,14.6-37.7c5.3-9.8,13.4-19.3,16.8-23.1
	c3.3-3.8,6.6-6.8,7.8-9.4c1.3-2.6,3.2-7.2,4.4-9c1.4-2,3.9-3.8,5.7-3.5c2.7,0.5,5.9,3.6,7.9,4.2c14.8,4.2,39.6,9,48,10.4
	c12,2.1,30.3,3.9,39.8,6.3c9.6,2.4,23.4,8.8,31.2,10c14.2,2.1,30.7-0.2,43.9,1.8c13.2,2,26.5,8.2,36.2,9.1
	c9.7,0.9,21.7-0.4,27.2-2.3c6.3-2.2,12.3-6,14.9-10c2.5-3.7,3.5-7.1,4.1-11.8c0.6-5.2,0.3-10.3-0.7-13.9c-0.8-2.9-4.7-13.8-5.2-16.4
	c-1.6-7.2-0.5-17.4,6.8-24.5c5.9-5.8,11.7-8.7,14-10c2.3-1.3,29.1-16.3,52.2-27.4"/>
<path id="path02_x5F_black" class="st3" d="M414,21.3c4.4-2.6,9.3-5.7,12.1-5.7c2.8,0,3.9,1.1,5,2c3.2,2.9,4.1,6,4.3,9.1
	c0.5,6.6-3.3,7.6-3.8,11.5c-0.5,4.3-0.8,12.1,0,15.4c1.8,7.7,0,13.8,1.4,17.2c0.7,1.8,4.4,2.6,5.8,1.7c1.6-1,3-2.9,2.7-4.8
	c-1.6-10-3.8-18.7-4-22.1s-0.4-5.9,1.1-8.4c2.4-4,5.9-3.9,10.9-3.6c9.4,0.6,20.6,4.2,25.4,7.2c2.6,1.6,3,5.3,2.3,7.7
	c-1.6,5.3-10.4,17.6-13.1,21.7"/>
<path id="path02_x5F_color" class="st5" d="M414,21.3c4.4-2.6,9.3-5.7,12.1-5.7c2.8,0,3.9,1.1,5,2c3.2,2.9,4.1,6,4.3,9.1
	c0.5,6.6-3.3,7.6-3.8,11.5c-0.5,4.3-0.8,12.1,0,15.4c1.8,7.7,0,13.8,1.4,17.2c0.7,1.8,4.4,2.6,5.8,1.7c1.6-1,3-2.9,2.7-4.8
	c-1.6-10-3.8-18.7-4-22.1s-0.4-5.9,1.1-8.4c2.4-4,5.9-3.9,10.9-3.6c9.4,0.6,20.6,4.2,25.4,7.2c2.6,1.6,3,5.3,2.3,7.7
	c-1.6,5.3-10.4,17.6-13.1,21.7"/>
<path id="path03_x5F_grey" class="st6" d="M464.1,70.4c-8,11.5-18.4,25.7-24,33.5s-13.2,18.7-19,24c-6.1,5.6-15.5,12.5-24,16.8
	c-8.7,4.4-21.4,9.3-32.2,11.8c-9.1,2.1-20.4,3.1-34.9,3.8"/>
<path id="path03_x5F_color" class="st5" d="M464.1,70.4c-8,11.5-18.4,25.7-24,33.5s-13.2,18.7-19,24c-6.1,5.6-15.5,12.5-24,16.8
	c-8.7,4.4-21.4,9.3-32.2,11.8c-9.1,2.1-20.4,3.1-34.9,3.8"/>
<path id="path04_x5F_black" class="st3" d="M330.1,160.2c-16.2,0.8-26.9,1-33.5,0.3s-33.7-4.9-37.6-5.9c-3.9-1-22-7.5-24.4-6.6
	c-2.4,0.9-2.6,6.6-5.6,6.6s-10.3-1.3-12.1-3.2s-2.6-4.3-4.5-5s-86.8-28.3-96.5-29.4s-7.1,0.1-9.1,1.4c-1.9,1.2-10.1,7.9-13.6,12.2
	S82,145,79.2,150.5c-2.8,5.6-6.4,14.7-6.4,16.6c0,1.9,0.5,5.4,1.6,7.9c1.1,2.5,3.6,5.9,4.1,8.7c0.5,2.8,0.4,7.3-0.4,10.8
	c-0.8,3.5-7.9,28.9-10.3,37.2"/>
<path id="path04_x5F_color" class="st5" d="M330.1,160.2c-16.2,0.8-26.9,1-33.5,0.3s-33.7-4.9-37.6-5.9c-3.9-1-22-7.5-24.4-6.6
	c-2.4,0.9-2.6,6.6-5.6,6.6s-10.3-1.3-12.1-3.2s-2.6-4.3-4.5-5s-86.8-28.3-96.5-29.4s-7.1,0.1-9.1,1.4c-1.9,1.2-10.1,7.9-13.6,12.2
	S82,145,79.2,150.5c-2.8,5.6-6.4,14.7-6.4,16.6c0,1.9,0.5,5.4,1.6,7.9c1.1,2.5,3.6,5.9,4.1,8.7c0.5,2.8,0.4,7.3-0.4,10.8
	c-0.8,3.5-7.9,28.9-10.3,37.2"/>
<path id="path05_x5F_black" class="st3" d="M67.9,231.8c-1.6,5.9-2.8,9.6-3.6,11.6c-1,2.5-1.4,3.9-5.4,4.1c-4.1,0.2-6,0.3-7.2,0.9
	c-1.4,0.7-3.6,3.2-4.5,10.9c-1.1,9-0.8,19.1,0,25.8c0.9,7.7,3.2,16.5,5,20.8c2.1,5.1,5.2,9.6,6.6,11.1c1.5,1.6,4.8,3.3,5.5,5.6
	c0.6,1.8,0.5,6.7,0,8.6c-0.5,1.8-4.3,3-6.3,3.2c-4.6,0.4-9.3-2-14.9-2.7c-5-0.6-11.9-1.4-14-2.7c-2-1.3-3.9-4.2-4.1-6.3
	c-0.3-3.3,1-5.9,1.6-7.4c0.6-1.5,1-3.3,1.1-4.9c0.2-3.1-4.6-14.5-4.9-20.4c-0.7-12.3,1-22.6,1.6-29.9c0.6-7.3,2.4-26.3,3.8-33
	c2.4-11,7.6-23.7,9.3-28.5c1.7-4.8,5.2-15.4,6.9-20.3"/>
<path id="path05_x5F_color" class="st7" d="M67.9,231.8c-1.6,5.9-2.8,9.6-3.6,11.6c-1,2.5-1.4,3.9-5.4,4.1c-4.1,0.2-6,0.3-7.2,0.9
	c-1.4,0.7-3.6,3.2-4.5,10.9c-1.1,9-0.8,19.1,0,25.8c0.9,7.7,3.2,16.5,5,20.8c2.1,5.1,5.2,9.6,6.6,11.1c1.5,1.6,4.8,3.3,5.5,5.6
	c0.6,1.8,0.5,6.7,0,8.6c-0.5,1.8-4.3,3-6.3,3.2c-4.6,0.4-9.3-2-14.9-2.7c-5-0.6-11.9-1.4-14-2.7c-2-1.3-3.9-4.2-4.1-6.3
	c-0.3-3.3,1-5.9,1.6-7.4c0.6-1.5,1-3.3,1.1-4.9c0.2-3.1-4.6-14.5-4.9-20.4c-0.7-12.3,1-22.6,1.6-29.9c0.6-7.3,2.4-26.3,3.8-33
	c2.4-11,7.6-23.7,9.3-28.5c1.7-4.8,5.2-15.4,6.9-20.3"/>
</svg>
