<?xml version="1.0" encoding="utf-8"?>
<!-- Generator: Adobe Illustrator 19.2.1, SVG Export Plug-In . SVG Version: 6.00 Build 0)  -->
<svg version="1.1" id="Circuit_Layout_1_" xmlns="http://www.w3.org/2000/svg" xmlns:xlink="http://www.w3.org/1999/xlink" x="0px"
	 y="0px" viewBox="0 0 500 350" style="enable-background:new 0 0 500 350;" xml:space="preserve">
<style type="text/css">
	.st0{font-family:'ArchitectsDaughter';}
	.st1{font-size:8px;}
	.st2{fill:#828282;stroke:#000000;}
	.st3{fill:none;stroke:#000000;stroke-width:10;}
	.st4{fill:none;stroke:#FFFF00;stroke-width:3;}
	.st5{fill:none;stroke:#FF0000;stroke-width:3;}
	.st6{fill:none;stroke:#00FFFF;stroke-width:3;}
</style>
<text transform="matrix(1 0 0 1 290.1116 165.111)"><tspan x="0" y="0" class="st0 st1">Autodromo Nazionale Monza</tspan><tspan x="55.3" y="9.6" class="st0 st1">Italy</tspan></text>
<rect id="rect01" x="378.1" y="270" transform="matrix(9.927779e-003 -1 1 9.927779e-003 118.512 668.8772)" class="st2" width="37.9" height="9.2"/>
<path id="path01_x5F_black" class="st3" d="M397,274.6c0,0-31.8,0.1-53.3,0c-21.5-0.1-43.6-0.3-66.3-0.2s-68.5,0.3-75.7,0.4
	c-7.2,0.7-11.3-3.4-13.9-7.1c-2-2.8-7.8-0.5-12.1,1.3c-8.6,3.5-30.6,10.5-57.6,4.2c-5.1-1.2-10-2.3-16.1-3.7
	c-17.4-7-29.5-22.2-35.7-41.4c-3.9-23.5-8.7-52.3-11.6-69.3"/>
<path id="path01_x5F_color" class="st4" d="M397,274.6c0,0-31.8,0.1-53.3,0c-21.5-0.1-43.6-0.3-66.3-0.2s-68.5,0.3-75.7,0.4
	c-7.2,0.7-11.3-3.4-13.9-7.1c-2-2.8-7.8-0.5-12.1,1.3c-8.6,3.5-30.6,10.5-57.6,4.2c-5.1-1.2-10-2.3-16.1-3.7
	c-17.4-7-29.5-22.2-35.7-41.4c-3.9-23.5-8.7-52.3-11.6-69.3"/>
<path id="path02_x5F_black" class="st3" d="M54.7,158.9c-1.5-8.9-3.1-17.8-4.1-24.2c-1.1-7-4.5-9.5-7.6-10.3
	c-4.1-0.7-9.1-14.6-12.7-27.1c-3.9-11.9-12.8-37.6-14.1-41.9c-1.1-5.5,0.4-18.7,26.1-20.9c16.5-2.2,35.7-5.2,41.2-6
	c8.5-1.1,12.5,7.6,17.1,16.2c5,8.3,20.8,35.3,24.4,41.1c4.4,4.8,21.8,23.9,29.4,32c7.5,8,55.1,58.5,62.4,66.2"/>
<path id="path02_x5F_color" class="st5" d="M54.7,158.9c-1.5-8.9-3.1-17.8-4.1-24.2c-1.1-7-4.5-9.5-7.6-10.3
	c-4.1-0.7-9.1-14.6-12.7-27.1c-3.9-11.9-12.8-37.6-14.1-41.9c-1.1-5.5,0.4-18.7,26.1-20.9c16.5-2.2,35.7-5.2,41.2-6
	c8.5-1.1,12.5,7.6,17.1,16.2c5,8.3,20.8,35.3,24.4,41.1c4.4,4.8,21.8,23.9,29.4,32c7.5,8,55.1,58.5,62.4,66.2"/>
<path id="path03_x5F_black" class="st3" d="M216.6,183.9c4,4.1,6.6,7,8.6,8.9c3.6,4.1,9.4,5.1,13.9,3.7c7.3-2.4,17.4,4.4,21.8,8.4
	c4.1,4.2,11.7,4.5,17.9,4.1c6.8,0.2,35.6,1,47.9,1.4c12.3,0.4,86.6,2.4,102.3,2.9c15.8,0.5,22.2,0.7,30.4,0.9
	c25.7,1.5,27,20.4,17.5,36.7c-4.8,8.5-15.4,21.1-33.4,23.8c-15.7,0-33.6-0.1-46.4,0"/>
<path id="path03_x5F_color" class="st6" d="M216.6,183.9c4,4.1,6.6,7,8.6,8.9c3.6,4.1,9.4,5.1,13.9,3.7c7.3-2.4,17.4,4.4,21.8,8.4
	c4.1,4.2,11.7,4.5,17.9,4.1c6.8,0.2,35.6,1,47.9,1.4c12.3,0.4,86.6,2.4,102.3,2.9c15.8,0.5,22.2,0.7,30.4,0.9
	c25.7,1.5,27,20.4,17.5,36.7c-4.8,8.5-15.4,21.1-33.4,23.8c-15.7,0-33.6-0.1-46.4,0"/>
</svg>
