<?xml version="1.0" encoding="utf-8"?>
<!-- Generator: Adobe Illustrator 19.2.1, SVG Export Plug-In . SVG Version: 6.00 Build 0)  -->
<svg version="1.1" id="Circuit_Layout" xmlns="http://www.w3.org/2000/svg" xmlns:xlink="http://www.w3.org/1999/xlink" x="0px"
	 y="0px" viewBox="0 0 500 350" style="enable-background:new 0 0 500 350;" xml:space="preserve">
<text transform="matrix(1 0 0 1 272.4235 43.8989)"><tspan x="0" y="0" style="font-family:'ArchitectsDaughter'; font-size:8px;">Autódromo Hermanos Rodriquez</tspan><tspan x="59" y="9.6" style="font-family:'ArchitectsDaughter'; font-size:8px;">Mexico</tspan></text>
<rect id="rect01" x="149.6" y="39" transform="matrix(0.1824 -0.9832 0.9832 0.1824 94.8855 201.4071)" style="fill:#828282;stroke:#000000;stroke-width:0.776;stroke-linecap:round;stroke-linejoin:round;" width="37.9" height="9.2"/>
<path id="path01_x5F_black" style="fill:none;stroke:#000000;stroke-width:10;stroke-miterlimit:10;" d="M166.6,43.9
	c106.1,16.4,162.8,22,198.1,27.7c23.6,3.8,65.3,10.6,76.1,13.3c9.8,2.5,10,2.3,9.1,9.6c-0.8,6.2-1.3,9-2.4,15.2
	c-0.5,2.8,1.8,4.1,5.6,7.7c2.3,2.2,4.4,3.7,4,5.7c-3.9,20-6,23-10.9,33.7c-2.3,5-4.5,7.6-7.2,12.4c-16.3,26.3-32.7,52.5-49,78.8
	c-2.2,3.6-4.6,7.2-7,10.7"/>
<path id="path01_x5F_color" style="fill:none;stroke:#FFFF00;stroke-width:3;stroke-miterlimit:10;" d="M166.6,43.9
	c106.1,16.4,162.8,22,198.1,27.7c23.6,3.8,65.3,10.6,76.1,13.3c9.8,2.5,10,2.3,9.1,9.6c-0.8,6.2-1.3,9-2.4,15.2
	c-0.5,2.8,1.8,4.1,5.6,7.7c2.3,2.2,4.4,3.7,4,5.7c-3.9,20-6,23-10.9,33.7c-2.3,5-4.5,7.6-7.2,12.4c-16.3,26.3-32.7,52.5-49,78.8
	c-2.2,3.6-4.6,7.2-7,10.7"/>
<path id="path02_x5F_black" style="fill:none;stroke:#000000;stroke-width:10;stroke-miterlimit:10;" d="M383,258.8
	c-6.8,10-14.1,19.8-21.1,29.6c-1,1.3-2.2,3.1-2,4.7c0.3,2.7,9.5,7,12.2,8.8c2.7,1.8,3.5,2.9,3.1,5.8c-0.3,2.1-2.6,3.4-4.2,4.5
	c-7.8,5.5-15.3,10.6-23.1,16.1c-1.1,0.7-2.4,1.2-3.6,0.7c-1.3-0.5-3.1-1.8-4.6-2.7c-1.6-0.9-1.3-2.7-1.1-4.5
	c3.9-27,7.9-54.8,11.9-81.8c0.5-3.3-0.9-6.7-3.7-8.5c-5.2-3.2-8.8-5.8-13.9-8.9c-5.2-3.2-9.1-10.8-11-16.6
	c-2.3-7.2-8.1-14.1-15.3-15.4c-10.8-2.1-21.7-3.7-32.5-5.6c-6.4-1.1-12.6-3.9-15.5-11.6c-1.7-4.5-2.9-8.6-4.5-13.2
	c-1.1-3.3-5-5.4-8.1-7.1c-10.2-5.6-20.8-11.2-30.9-16.7c-7.2-3.9-15.5-6.1-23.6-7.4c-5-0.8-10-1.6-15-2.4"/>
<path id="path02_x5F_color" style="fill:none;stroke:#FF0000;stroke-width:3;stroke-miterlimit:10;" d="M383,258.8
	c-6.8,10-14.1,19.8-21.1,29.6c-1,1.3-2.2,3.1-2,4.7c0.3,2.7,9.5,7,12.2,8.8c2.7,1.8,3.5,2.9,3.1,5.8c-0.3,2.1-2.6,3.4-4.2,4.5
	c-7.8,5.5-15.3,10.6-23.1,16.1c-1.1,0.7-2.4,1.2-3.6,0.7c-1.3-0.5-3.1-1.8-4.6-2.7c-1.6-0.9-1.3-2.7-1.1-4.5
	c3.9-27,7.9-54.8,11.9-81.8c0.5-3.3-0.9-6.7-3.7-8.5c-5.2-3.2-8.8-5.8-13.9-8.9c-5.2-3.2-9.1-10.8-11-16.6
	c-2.3-7.2-8.1-14.1-15.3-15.4c-10.8-2.1-21.7-3.7-32.5-5.6c-6.4-1.1-12.6-3.9-15.5-11.6c-1.7-4.5-2.9-8.6-4.5-13.2
	c-1.1-3.3-5-5.4-8.1-7.1c-10.2-5.6-20.8-11.2-30.9-16.7c-7.2-3.9-15.5-6.1-23.6-7.4c-5-0.8-10-1.6-15-2.4"/>
<path id="path03_x5F_black" style="fill:none;stroke:#000000;stroke-width:10;stroke-miterlimit:10;" d="M176.5,126.6
	c-22.8-3.7-45.5-7.4-68.3-11.1c-4.9-0.8-9.8-2.5-10.6-10c-1.3-12-2.2-23.9-3.3-35.9c-0.2-2.3-0.3-5.1-3.1-6.2
	c-1.8-0.7-3.9-0.4-5,1.1c-1.7,2.3-3.6,4.3-5.3,6.6c-1.5,2-5.5,2-7.8,0.9c-2.6-1.2-5-3.5-7.9-3.8c-5.8-0.8-11.3-1.1-17.1-1.8
	c-2.6-0.3-5.1-3.5-4.9-6c0.3-2.6,0.5-3.4,1.2-5.2c2.8-7.5,8.3-15.8,15.3-19.9c6.4-3.8,13.8-6.1,22.4-4.5l84.4,13.1"/>
<path id="path03_x5F_color" style="fill:none;stroke:#00FFFF;stroke-width:3;stroke-miterlimit:10;" d="M176.5,126.6
	c-22.8-3.7-45.5-7.4-68.3-11.1c-4.9-0.8-9.8-2.5-10.6-10c-1.3-12-2.2-23.9-3.3-35.9c-0.2-2.3-0.3-5.1-3.1-6.2
	c-1.8-0.7-3.9-0.4-5,1.1c-1.7,2.3-3.6,4.3-5.3,6.6c-1.5,2-5.5,2-7.8,0.9c-2.6-1.2-5-3.5-7.9-3.8c-5.8-0.8-11.3-1.1-17.1-1.8
	c-2.6-0.3-5.1-3.5-4.9-6c0.3-2.6,0.5-3.4,1.2-5.2c2.8-7.5,8.3-15.8,15.3-19.9c6.4-3.8,13.8-6.1,22.4-4.5l84.4,13.1"/>
</svg>
