<?xml version="1.0" encoding="utf-8"?>
<!-- Generator: Adobe Illustrator 19.2.1, SVG Export Plug-In . SVG Version: 6.00 Build 0)  -->
<svg version="1.1" id="Circuit_Layout" xmlns="http://www.w3.org/2000/svg" xmlns:xlink="http://www.w3.org/1999/xlink" x="0px"
	 y="0px" viewBox="0 0 500 350" style="enable-background:new 0 0 500 350;" xml:space="preserve">
<style type="text/css">
	.st0{font-family:'ArchitectsDaughter';}
	.st1{font-size:8px;}
	.st2{fill:#828282;stroke:#000000;}
	.st3{fill:none;stroke:#000000;stroke-width:10;}
	.st4{fill:none;stroke:#FFFF00;stroke-width:3;}
	.st5{fill:none;stroke:#FF0000;stroke-width:3;}
	.st6{fill:none;stroke:#00FFFF;stroke-width:3;}
</style>
<text transform="matrix(1 0 0 1 141.0939 70.1329)"><tspan x="0" y="0" class="st0 st1">Bahrain International Circuit</tspan><tspan x="46.7" y="9.6" class="st0 st1">Bahrain</tspan></text>
<rect id="rect01" x="303.3" y="323.6" transform="matrix(9.927779e-003 -1 1 9.927779e-003 -9.144 647.275)" class="st2" width="37.9" height="9.2"/>
<path id="path01_x5F_black" class="st3" d="M322.3,328.2c-26.7,0.1-97.5,0.4-128,0.4s-144.3-0.4-149.2-0.4s-17.2,0.5-19.8,0.4
	s-9.8-0.1-11.7-0.6c-1.6-0.4-2.2-2.4-2.4-4c-0.2-1.6-0.4-3.3,0.2-4.3c0.7-1,2.6-2.6,4.7-4.9c4.7-4.9,13-14.5,15.6-18
	c0.9-1.3,1.4-2.4,1.3-4.4c0-1.5,0-2.9-0.7-5s-11.4-28.8-12.1-31.4c-0.7-2.6-1.3-5.4-1.2-7.8c0.1-2.4,0.4-6.7,1.1-12.3
	c0.7-5.6,3.7-28.7,4.6-35.9c0.9-7.2,8.6-66.8,10.2-78.1s9.3-72.5,12.7-89.9c0.6-3.1,0.9-6.6,2.6-7.9c2.7-2.2,8.4-3.5,10.6-3
	c2.5,0.5,5.6,1.2,7.4,2.1c1.8,0.8,5,2.6,6.5,3.9c1.4,1.3,4.6,4.6,5.8,6.3c1.2,1.8,4.7,7.7,6.1,9.6c1.4,2,4.5,6.1,6.8,8.4
	c6.5,6.7,17.6,17,20.3,19.5c2.7,2.5,6.9,6.3,12.7,11.4"/>
<path id="path01_x5F_color" class="st4" d="M322.3,328.2c-26.7,0.1-97.5,0.4-128,0.4s-144.3-0.4-149.2-0.4s-17.2,0.5-19.8,0.4
	s-9.8-0.1-11.7-0.6c-1.6-0.4-2.2-2.4-2.4-4c-0.2-1.6-0.4-3.3,0.2-4.3c0.7-1,2.6-2.6,4.7-4.9c4.7-4.9,13-14.5,15.6-18
	c0.9-1.3,1.4-2.4,1.3-4.4c0-1.5,0-2.9-0.7-5s-11.4-28.8-12.1-31.4c-0.7-2.6-1.3-5.4-1.2-7.8c0.1-2.4,0.4-6.7,1.1-12.3
	c0.7-5.6,3.7-28.7,4.6-35.9c0.9-7.2,8.6-66.8,10.2-78.1s9.3-72.5,12.7-89.9c0.6-3.1,0.9-6.6,2.6-7.9c2.7-2.2,8.4-3.5,10.6-3
	c2.5,0.5,5.6,1.2,7.4,2.1c1.8,0.8,5,2.6,6.5,3.9c1.4,1.3,4.6,4.6,5.8,6.3c1.2,1.8,4.7,7.7,6.1,9.6c1.4,2,4.5,6.1,6.8,8.4
	c6.5,6.7,17.6,17,20.3,19.5c2.7,2.5,6.9,6.3,12.7,11.4"/>
<path id="path02_x5F_black" class="st3" d="M126.4,82.4c3.5,2.9,7.7,6.4,9.6,7.5c2.2,1.4,6.8,3,10.4,4c2.7,0.8,10.2,3.1,12.8,4.1
	c2.8,1.2,4.7,3.1,5.4,3.9c0.7,0.8,3.7,4.8,4.7,7.1c1,2.2,2.1,4.3,2.3,6.7s0.1,7.4-0.2,10.5c-0.4,3.1-1.5,9.3-1.8,12.3
	c-0.3,3-0.8,7.5-0.5,9.9c0.5,3.2,1.8,7.1,3,9c1.5,2.4,3.9,4.7,6,6.5c2.1,1.8,11.1,9.1,14.6,11.6s27.8,19.2,31.7,21.9
	c3.9,2.7,15.8,10.8,18.4,13.3c2.2,2.1,2.9,4.1,3,4.7c0.2,1.1,0,4.6-0.9,5.6c-1.3,1.3-2.6,2.1-4,2.7c-1.5,0.6-3.4,1.3-5.5,1.3
	s-5.5-0.1-8.3-0.4c-2.8-0.3-109-12.4-114.2-12.5c-5.8-0.1-8.9,1.1-11,1.7c-3.2,0.9-6.6,3-8,4c-2.1,1.5-4.9,4.6-6.6,6.6
	c-3.1,3.7-7.6,10.8-8.5,12.1c-0.9,1.3-2.7,3.8-2.8,4.7c-0.2,1.5,0.2,2.7,0.9,3.3c0.9,0.8,2.6,1.5,4.4,1.7
	c12.9,1.5,36.6,3.7,44.2,4.1c7.6,0.4,10.5,0.5,12.8,0.5s212.4,0,215.1-0.2c12.3-1.1,13.2-11.2,14-16.3c0.8-5.3,0.8-9,0.5-11.4
	c-0.5-3.6-1.8-7.1-2.6-9c-0.7-1.9-3-7-3.9-8.8c-0.9-1.8-2.4-4.7-3.4-6c-1-1.3-3.6-4.3-6.1-6.8c-1.6-1.6-5.9-5.7-8.8-7.6
	c-2.9-1.8-7.4-4.6-12.1-6.5c-7.2-2.9-19.3-6.2-22.3-7.1c-3.9-1.1-7.1-2.2-9-3c-2.8-1.2-7.9-5.1-10.1-7.1s-6.8-6.5-8.3-8.9
	c-1.5-2.3-3.2-5.8-4.1-8.4c-0.9-2.6-3.2-10-3.7-12.2c-0.6-2.2-1.5-6.7-1.5-8.7c-0.1-3.3,0.6-8,1.7-11.4c2.8-8.5,6.7-16.9,8.4-20.9
	s5.9-14.4,9.4-21.9"/>
<path id="path02_x5F_color" class="st5" d="M126.4,82.4c3.5,2.9,7.7,6.4,9.6,7.5c2.2,1.4,6.8,3,10.4,4c2.7,0.8,10.2,3.1,12.8,4.1
	c2.8,1.2,4.7,3.1,5.4,3.9c0.7,0.8,3.7,4.8,4.7,7.1c1,2.2,2.1,4.3,2.3,6.7s0.1,7.4-0.2,10.5c-0.4,3.1-1.5,9.3-1.8,12.3
	c-0.3,3-0.8,7.5-0.5,9.9c0.5,3.2,1.8,7.1,3,9c1.5,2.4,3.9,4.7,6,6.5c2.1,1.8,11.1,9.1,14.6,11.6s27.8,19.2,31.7,21.9
	c3.9,2.7,15.8,10.8,18.4,13.3c2.2,2.1,2.9,4.1,3,4.7c0.2,1.1,0,4.6-0.9,5.6c-1.3,1.3-2.6,2.1-4,2.7c-1.5,0.6-3.4,1.3-5.5,1.3
	s-5.5-0.1-8.3-0.4c-2.8-0.3-109-12.4-114.2-12.5c-5.8-0.1-8.9,1.1-11,1.7c-3.2,0.9-6.6,3-8,4c-2.1,1.5-4.9,4.6-6.6,6.6
	c-3.1,3.7-7.6,10.8-8.5,12.1c-0.9,1.3-2.7,3.8-2.8,4.7c-0.2,1.5,0.2,2.7,0.9,3.3c0.9,0.8,2.6,1.5,4.4,1.7
	c12.9,1.5,36.6,3.7,44.2,4.1c7.6,0.4,10.5,0.5,12.8,0.5s212.4,0,215.1-0.2c12.3-1.1,13.2-11.2,14-16.3c0.8-5.3,0.8-9,0.5-11.4
	c-0.5-3.6-1.8-7.1-2.6-9c-0.7-1.9-3-7-3.9-8.8c-0.9-1.8-2.4-4.7-3.4-6c-1-1.3-3.6-4.3-6.1-6.8c-1.6-1.6-5.9-5.7-8.8-7.6
	c-2.9-1.8-7.4-4.6-12.1-6.5c-7.2-2.9-19.3-6.2-22.3-7.1c-3.9-1.1-7.1-2.2-9-3c-2.8-1.2-7.9-5.1-10.1-7.1s-6.8-6.5-8.3-8.9
	c-1.5-2.3-3.2-5.8-4.1-8.4c-0.9-2.6-3.2-10-3.7-12.2c-0.6-2.2-1.5-6.7-1.5-8.7c-0.1-3.3,0.6-8,1.7-11.4c2.8-8.5,6.7-16.9,8.4-20.9
	s5.9-14.4,9.4-21.9"/>
<path id="path03_x5F_black" class="st3" d="M291.5,68.5c2.6-7.3,7.9-13.3,12.6-16.9c2.7-2,6.5-5.2,9.9-5.8c4.1-0.8,8.2-0.4,9.9,0.1
	c1.2,0.3,2.9,1.4,3.5,1.9c1.6,1.4,5.5,4.5,7.6,7.2c3.6,4.7,17.4,26,28.1,43.7c3.4,5.6,26.1,42.8,31.3,51.4s70.4,117,74.2,123
	c3.8,6,17.4,27.1,19,30.6c1,2.2,1.2,3.8,1,5.6c-0.3,1.8-0.7,4.9-2.4,6.1c-6.1,4-18,8.6-21.9,9.7c-3.9,1.1-7.5,1.9-10.7,1.9
	c-26.7,0.2-109,0.9-131.2,1.1"/>
<path id="path03_x5F_color" class="st6" d="M291.5,68.5c2.6-7.3,7.9-13.3,12.6-16.9c2.7-2,6.5-5.2,9.9-5.8c4.1-0.8,8.2-0.4,9.9,0.1
	c1.2,0.3,2.9,1.4,3.5,1.9c1.6,1.4,5.5,4.5,7.6,7.2c3.6,4.7,17.4,26,28.1,43.7c3.4,5.6,26.1,42.8,31.3,51.4s70.4,117,74.2,123
	c3.8,6,17.4,27.1,19,30.6c1,2.2,1.2,3.8,1,5.6c-0.3,1.8-0.7,4.9-2.4,6.1c-6.1,4-18,8.6-21.9,9.7c-3.9,1.1-7.5,1.9-10.7,1.9
	c-26.7,0.2-109,0.9-131.2,1.1"/>
</svg>
